<?xml version="1.0"?>
<!--Icons from directory ""-->
<svg xmlns="http://www.w3.org/2000/svg" width="300" height="1139" viewBox="0 0 300 1139"><svg xmlns:xlink="http://www.w3.org/1999/xlink" id="arrows-1" style="enable-background:new 0 0 476.213 476.213" xml:space="preserve" viewBox="0 0 476.213 476.213" version="1.1" y="0" x="0px" width="32" height="32"><polygon points="345.61 107.5 324.39 128.71 418.79 223.11 0 223.11 0 253.11 418.79 253.11 324.39 347.5 345.61 368.71 476.21 238.11"/></svg><svg xmlns:xlink="http://www.w3.org/1999/xlink" id="arrows" style="enable-background:new 0 0 476.213 476.213" xml:space="preserve" viewBox="0 0 476.213 476.213" version="1.1" y="32" x="0px" width="32" height="32"><polygon points="476.21 223.11 57.427 223.11 151.82 128.71 130.61 107.5 0 238.11 130.61 368.71 151.82 347.5 57.427 253.11 476.21 253.11"/></svg><svg xmlns:xlink="http://www.w3.org/1999/xlink" id="bars" style="enable-background:new 0 0 302 302" xml:space="preserve" viewBox="0 0 302 302" version="1.1" y="64" x="0px" width="32" height="32">	<rect y="36" width="302" height="30"/>	<rect y="236" width="302" height="30"/>	<rect y="136" width="302" height="30"/></svg><svg xmlns:xlink="http://www.w3.org/1999/xlink" id="business" style="enable-background:new 0 0 305.692 305.692" xml:space="preserve" viewBox="0 0 305.692 305.692" version="1.1" y="96" x="0px" width="32" height="32">	<path d="m166.43 8.071l-166.43 166.43 130.81 130.81 164.4-164.4 2.009-2.01 8.466-138.53-139.26 7.701zm116.17 124.25l-151.79 151.78-109.6-109.6 151.77-151.77 116.71-6.448-7.09 116.04z"/>	<path d="m235.47 99.849c8.013 0 15.547-3.12 21.214-8.787 11.695-11.696 11.695-30.729-0.001-42.427-5.666-5.666-13.2-8.786-21.213-8.786s-15.547 3.12-21.214 8.786c-5.666 5.667-8.787 13.2-8.787 21.214s3.121 15.547 8.788 21.214c5.66 5.666 13.19 8.786 21.21 8.786zm-10.61-40.607c2.834-2.833 6.601-4.394 10.607-4.394s7.773 1.561 10.606 4.393c5.849 5.849 5.849 15.366 0.001 21.214-2.834 2.833-6.601 4.394-10.607 4.394s-7.773-1.561-10.606-4.394c-2.834-2.833-4.395-6.6-4.395-10.606s1.57-7.774 4.4-10.607z"/></svg><svg xmlns:xlink="http://www.w3.org/1999/xlink" id="clock" style="enable-background:new 0 0 612 612" xml:space="preserve" height="300" viewBox="0 0 612 612" width="300" version="1.1" y="128" x="0px">		<path d="m587.57 186.88c-32.266-75.225-87.096-129.93-162.95-162.28-37.91-16.173-77.63-24.432-119.12-24.432-41.488 0-80.914 8.181-118.78 24.428-75.23 32.265-130.3 86.944-162.63 162.28-16.195 37.75-24.09 77.3-24.09 118.78 0 41.496 7.895 81.371 24.092 119.13 32.323 75.346 87.403 130.35 162.62 162.62 37.877 16.247 77.295 24.42 118.78 24.42 41.489 0 81.214-8.259 119.12-24.42 75.853-32.352 130.68-87.403 162.96-162.62 16.25-37.88 24.43-77.63 24.43-119.13 0-41.48-8.17-80.9-24.43-118.78zm-48.85 253.97c-24.021 41.195-56.929 73.876-98.375 98.039-41.195 24.021-86.332 36.135-134.84 36.135-36.47 0-71.27-7.024-104.4-21.415-33.129-14.384-61.733-33.294-85.661-57.215-23.928-23.928-42.973-52.811-57.214-85.997-14.199-33.065-21.08-68.258-21.08-104.74 0-48.52 11.921-93.428 35.807-134.51 23.971-41.231 56.886-73.947 98.039-98.04 41.146-24.092 85.99-36.142 134.5-36.142 48.52 0 93.649 12.121 134.84 36.142 41.446 24.164 74.283 56.879 98.375 98.039 24.092 41.153 36.135 85.99 36.135 134.51 0.01 48.54-11.95 93.76-36.12 135.21z"/>		<path d="m324.91 302.99v-173.33c0-10.372-9.037-18.738-19.41-18.738-9.701 0-18.403 8.366-18.403 18.738v176c0 0.336 0.671 1.678 0.671 2.678-0.671 6.024 1.007 11.043 5.019 15.062l100.05 100.05c6.695 6.695 19.073 6.695 25.763 0 7.694-7.695 7.188-18.86 0-26.099l-93.69-94.36z"/></svg><svg xmlns:xlink="http://www.w3.org/1999/xlink" id="facebook-logo" style="enable-background:new 0 0 96.124 96.123" xml:space="preserve" height="96" viewBox="0 0 96.124 96.123" width="96" version="1.1" y="428" x="0px">	<path d="m72.089 0.02l-12.465-0.02c-14.004 0-23.054 9.285-23.054 23.656v10.907h-12.533c-1.083 0-1.96 0.878-1.96 1.961v15.803c0 1.083 0.878 1.96 1.96 1.96h12.533v39.876c0 1.083 0.877 1.96 1.96 1.96h16.352c1.083 0 1.96-0.878 1.96-1.96v-39.876h14.654c1.083 0 1.96-0.877 1.96-1.96l0.006-15.803c0-0.52-0.207-1.018-0.574-1.386s-0.867-0.575-1.387-0.575h-14.659v-9.246c0-4.444 1.059-6.7 6.848-6.7l8.397-0.003c1.082 0 1.959-0.878 1.959-1.96v-14.674c0-1.081-0.876-1.958-1.957-1.96z"/></svg><svg xmlns:xlink="http://www.w3.org/1999/xlink" id="instagram-social-network-logo-of-photo-camera" style="enable-background:new 0 0 97.395 97.395" xml:space="preserve" height="97" viewBox="0 0 97.395 97.395" width="97" version="1.1" y="524" x="0px">	<path d="m12.501 0h72.393c6.875 0 12.5 5.09 12.5 12.5v72.395c0 7.41-5.625 12.5-12.5 12.5h-72.393c-6.877 0-12.501-5.09-12.501-12.5v-72.395c0-7.41 5.624-12.5 12.501-12.5zm58.447 10.821c-2.412 0-4.383 1.972-4.383 4.385v10.495c0 2.412 1.971 4.385 4.383 4.385h11.008c2.412 0 4.385-1.973 4.385-4.385v-10.495c0-2.413-1.973-4.385-4.385-4.385h-11.008zm15.439 30.367h-8.572c0.811 2.648 1.25 5.453 1.25 8.355 0 16.2-13.556 29.332-30.275 29.332-16.718 0-30.272-13.132-30.272-29.332 0-2.904 0.438-5.708 1.25-8.355h-8.945v41.141c0 2.129 1.742 3.872 3.872 3.872h67.822c2.13 0 3.872-1.742 3.872-3.872v-41.141h-0.002zm-37.598-11.655c-10.802 0-19.56 8.485-19.56 18.953s8.758 18.953 19.56 18.953c10.803 0 19.562-8.485 19.562-18.953s-8.758-18.953-19.562-18.953z"/></svg><svg xmlns:xlink="http://www.w3.org/1999/xlink" id="interface-1" style="enable-background:new 0 0 512 512" xml:space="preserve" viewBox="0 0 512 512" version="1.1" y="621" x="0px" width="32" height="32">		<g fill="#010002">			<path d="m30 92c-8 0-13 0.667-15 2s-2.333 2.833-1 4.5 4.667 4.5 10 8.5c2.667 2 4.667 3.667 6 5l226 172 226-171 5-5c5.333-4 8.833-6.833 10.5-8.5s1.5-3.333-0.5-5-7-2.5-15-2.5h-452z"/>			<path d="m0 132v254c0 7.333 3 14.833 9 22.5s12 11.5 18 11.5h458c6 0 12-3.833 18-11.5s9-15.167 9-22.5v-254l-256 196-256-196z"/>		</g></svg><svg xmlns:xlink="http://www.w3.org/1999/xlink" id="interface" style="enable-background:new 0 0 490 490" xml:space="preserve" viewBox="0 0 490 490" version="1.1" y="653" x="0px" width="32" height="32"><path d="m419.36 193.31c0-106.76-89.16-193.31-199.13-193.31s-199.12 86.549-199.12 193.31 89.151 193.31 199.12 193.31c37.904 0 73.205-10.468 103.36-28.315l-4.667 4.248 115.95 127.45 34.029-30.973-113.14-124.37c39.03-35.29 63.6-85.48 63.6-141.35zm-352.24 0c0-81.222 68.686-147.3 153.12-147.3 84.428 0 153.12 66.079 153.12 147.3s-68.7 147.3-153.13 147.3c-84.43 0-153.12-66.08-153.12-147.3z"/></svg><svg xmlns:xlink="http://www.w3.org/1999/xlink" id="telephone" style="enable-background:new 0 0 459 459" xml:space="preserve" height="300" viewBox="0 0 459 459" width="300" version="1.1" y="685" x="0px">	<g id="telephone-call">		<path d="m91.8 198.9c35.7 71.4 96.9 130.05 168.3 168.3l56.1-56.1c7.649-7.649 17.85-10.199 25.5-5.1 28.05 10.2 58.649 15.3 91.8 15.3 15.3 0 25.5 10.2 25.5 25.5v86.7c0 15.3-10.2 25.5-25.5 25.5-239.7 0-433.5-193.8-433.5-433.5 0-15.3 10.2-25.5 25.5-25.5h89.25c15.3 0 25.5 10.2 25.5 25.5 0 30.6 5.1 61.2 15.3 91.8 2.55 7.65 0 17.85-5.1 25.5l-58.65 56.1z"/>	</g></svg><svg xmlns:xlink="http://www.w3.org/1999/xlink" id="twitter-logo-silhouette" style="enable-background:new 0 0 612 612" xml:space="preserve" viewBox="0 0 612 612" version="1.1" y="985" x="0px" width="32" height="32">		<path d="m612 116.26c-22.525 9.981-46.694 16.75-72.088 19.772 25.929-15.527 45.777-40.155 55.184-69.411-24.322 14.379-51.169 24.82-79.775 30.48-22.907-24.437-55.49-39.658-91.63-39.658-69.334 0-125.55 56.217-125.55 125.51 0 9.828 1.109 19.427 3.251 28.606-104.33-5.24-196.83-55.22-258.75-131.17-10.823 18.51-16.98 40.078-16.98 63.101 0 43.559 22.181 81.993 55.835 104.48-20.575-0.688-39.926-6.348-56.867-15.756v1.568c0 60.806 43.291 111.55 100.69 123.1-10.517 2.83-21.607 4.398-33.08 4.398-8.107 0-15.947-0.803-23.634-2.333 15.985 49.907 62.336 86.199 117.25 87.194-42.947 33.654-97.099 53.655-155.92 53.655-10.134 0-20.116-0.612-29.944-1.721 55.567 35.681 121.54 56.485 192.44 56.485 230.95 0 357.19-191.29 357.19-357.19l-0.421-16.253c24.66-17.59 46-39.7 62.79-64.86z" fill="#010002"/></svg><svg xmlns:xlink="http://www.w3.org/1999/xlink" id="vk" style="enable-background:new 0 0 304.36 304.36" xml:space="preserve" viewBox="0 0 304.36 304.36" version="1.1" y="1017" x="0px" width="32" height="32"><g id="vk-XMLID_1_">	<path id="vk-XMLID_807_" fill-rule="evenodd" clip-rule="evenodd" d="m261.94 175.58c10.096 9.857 20.752 19.131 29.807 29.982 4 4.822 7.787 9.798 10.684 15.394 4.105 7.955 0.387 16.709-6.746 17.184l-44.34-0.02c-11.436 0.949-20.559-3.655-28.23-11.474-6.139-6.253-11.824-12.908-17.727-19.372-2.42-2.642-4.953-5.128-7.979-7.093-6.053-3.929-11.307-2.726-14.766 3.587-3.523 6.421-4.322 13.531-4.668 20.687-0.475 10.441-3.631 13.186-14.119 13.664-22.414 1.057-43.686-2.334-63.447-13.641-17.422-9.968-30.932-24.04-42.691-39.971-22.871-31.03-40.404-65.11-56.162-100.16-3.547-7.892-0.953-12.13 7.758-12.28 14.465-0.281 28.928-0.261 43.41-0.02 5.879 0.086 9.771 3.458 12.041 9.012 7.826 19.243 17.402 37.551 29.422 54.521 3.201 4.518 6.465 9.036 11.113 12.216 5.142 3.521 9.057 2.354 11.476-3.374 1.535-3.632 2.207-7.544 2.553-11.434 1.146-13.383 1.297-26.743-0.713-40.079-1.234-8.323-5.922-13.711-14.227-15.286-4.238-0.803-3.607-2.38-1.555-4.799 3.564-4.172 6.916-6.769 13.598-6.769h50.111c7.889 1.557 9.641 5.101 10.721 13.039l0.043 55.663c-0.086 3.073 1.535 12.192 7.07 14.226 4.43 1.448 7.35-2.096 10.008-4.905 11.998-12.734 20.561-27.783 28.211-43.366 3.395-6.852 6.314-13.968 9.143-21.078 2.096-5.276 5.385-7.872 11.328-7.757l48.229 0.043c1.43 0 2.877 0.021 4.262 0.258 8.127 1.385 10.354 4.881 7.844 12.817-3.955 12.451-11.65 22.827-19.174 33.251-8.043 11.129-16.645 21.877-24.621 33.072-7.33 10.21-6.75 15.37 2.35 24.25z"/></g></svg><svg xmlns:xlink="http://www.w3.org/1999/xlink" id="youtube-logo" style="enable-background:new 0 0 90 90" xml:space="preserve" height="90" viewBox="0 0 90 90" width="90" version="1.1" y="1049" x="0px">	<path id="youtube-logo-YouTube" d="m70.939 65.832h-4.939l0.023-2.869c0-1.275 1.047-2.318 2.326-2.318h0.315c1.282 0 2.332 1.043 2.332 2.318l-0.057 2.869zm-18.526-6.148c-1.253 0-2.278 0.842-2.278 1.873v13.953c0 1.029 1.025 1.869 2.278 1.869 1.258 0 2.284-0.84 2.284-1.869v-13.953c0-1.032-1.026-1.873-2.284-1.873zm30.087-7.805v26.544c0 6.367-5.521 11.577-12.27 11.577h-50.459c-6.751 0-12.271-5.21-12.271-11.577v-26.544c0-6.367 5.52-11.578 12.271-11.578h50.459c6.749 0 12.27 5.211 12.27 11.578zm-59.363 29.426l-0.004-27.961 6.255 0.002v-4.143l-16.674-0.025v4.073l5.205 0.015v28.039h5.218zm18.75-23.796h-5.215v14.931c0 2.16 0.131 3.24-0.008 3.621-0.424 1.158-2.33 2.388-3.073 0.125-0.126-0.396-0.015-1.591-0.017-3.643l-0.021-15.034h-5.186l0.016 14.798c0.004 2.268-0.051 3.959 0.018 4.729 0.127 1.357 0.082 2.939 1.341 3.843 2.346 1.69 6.843-0.252 7.968-2.668l-0.01 3.083 4.188 0.005-0.001-23.79zm16.683 17.098l-0.011-12.427c-0.004-4.736-3.547-7.572-8.356-3.74l0.021-9.239-5.209 0.008-0.025 31.89 4.284-0.062 0.39-1.986c5.473 5.021 8.914 1.58 8.906-4.444zm16.321-1.647l-3.91 0.021c-0.002 0.155-0.008 0.334-0.01 0.529v2.182c0 1.168-0.965 2.119-2.137 2.119h-0.766c-1.174 0-2.139-0.951-2.139-2.119v-5.739h8.954v-3.37c0-2.463-0.063-4.925-0.267-6.333-0.641-4.454-6.893-5.161-10.051-2.881-0.991 0.712-1.748 1.665-2.188 2.945-0.444 1.281-0.665 3.031-0.665 5.254v7.41c0.002 12.318 14.964 10.577 13.179-0.018zm-20.058-40.228c0.269 0.654 0.687 1.184 1.254 1.584 0.56 0.394 1.276 0.592 2.134 0.592 0.752 0 1.418-0.203 1.998-0.622 0.578-0.417 1.065-1.04 1.463-1.871l-0.099 2.046h5.813v-24.721h-4.576v19.24c0 1.042-0.858 1.895-1.907 1.895-1.043 0-1.904-0.853-1.904-1.895v-19.24h-4.776v16.674c0 2.124 0.039 3.54 0.102 4.258 0.065 0.713 0.229 1.397 0.498 2.06zm-17.616-13.962c0-2.373 0.198-4.226 0.591-5.562 0.396-1.331 1.107-2.401 2.137-3.208 1.027-0.811 2.342-1.217 3.941-1.217 1.345 0 2.497 0.264 3.459 0.781 0.967 0.52 1.713 1.195 2.23 2.028 0.527 0.836 0.885 1.695 1.076 2.574 0.195 0.891 0.291 2.235 0.291 4.048v6.252c0 2.293-0.092 3.98-0.271 5.051-0.177 1.074-0.557 2.07-1.146 3.004-0.58 0.924-1.329 1.615-2.237 2.056-0.918 0.445-1.968 0.663-3.154 0.663-1.325 0-2.441-0.183-3.361-0.565-0.923-0.38-1.636-0.953-2.144-1.714-0.513-0.762-0.874-1.69-1.092-2.772-0.219-1.081-0.323-2.707-0.323-4.874l0.003-6.545zm4.553 9.82c0 1.4 1.042 2.543 2.311 2.543 1.27 0 2.308-1.143 2.308-2.543v-13.16c0-1.398-1.038-2.541-2.308-2.541-1.269 0-2.311 1.143-2.311 2.541v13.16zm-16.088 6.645h5.484l0.006-18.96 6.48-16.242h-5.998l-3.445 12.064-3.494-12.097h-5.936l6.894 16.284 0.009 18.951z"/></svg></svg>
