<?xml version="1.0" encoding="utf-8"?>
<!-- Generated by IcoMoon.io -->
<!DOCTYPE svg PUBLIC "-//W3C//DTD SVG 1.1//EN" "http://www.w3.org/Graphics/SVG/1.1/DTD/svg11.dtd">
<svg version="1.1" xmlns="http://www.w3.org/2000/svg" xmlns:xlink="http://www.w3.org/1999/xlink" width="32" height="32" viewBox="0 0 32 32">
<path d="M27.386 12.624c0-6.972-5.822-12.624-13.004-12.624s-13.004 5.652-13.004 12.624 5.822 12.624 13.004 12.624c2.475 0 4.781-0.684 6.75-1.849l-0.305 0.277 7.572 8.323 2.222-2.023-7.389-8.122c2.55-2.305 4.153-5.582 4.153-9.231zM4.383 12.624c0-5.304 4.486-9.62 9.999-9.62s9.999 4.315 9.999 9.62-4.486 9.62-9.999 9.62c-5.514 0-9.999-4.315-9.999-9.62z"></path>
</svg>
