<?xml version="1.0" encoding="utf-8"?>
<!-- Generated by IcoMoon.io -->
<!DOCTYPE svg PUBLIC "-//W3C//DTD SVG 1.1//EN" "http://www.w3.org/Graphics/SVG/1.1/DTD/svg11.dtd">
<svg version="1.1" xmlns="http://www.w3.org/2000/svg" xmlns:xlink="http://www.w3.org/1999/xlink" width="32" height="32" viewBox="0 0 32 32">
<path d="M6.4 13.867c2.489 4.978 6.756 9.067 11.733 11.733l3.911-3.911c0.533-0.533 1.244-0.711 1.778-0.356 1.956 0.711 4.089 1.067 6.4 1.067 1.067 0 1.778 0.711 1.778 1.778v6.044c0 1.067-0.711 1.778-1.778 1.778-16.711 0-30.222-13.511-30.222-30.222 0-1.067 0.711-1.778 1.778-1.778h6.222c1.067 0 1.778 0.711 1.778 1.778 0 2.133 0.356 4.267 1.067 6.4 0.178 0.533 0 1.244-0.356 1.778l-4.089 3.911z"></path>
</svg>
