<svg xmlns="http://www.w3.org/2000/svg" viewBox="0 0 960 560"><path fill="#F33" d="M476.3 189.6l-87 26.3 87 26.8z"/><path fill="#C62828" d="M567.2 218.1l-90.9-28.5v53.1zM476.3 242.7l-87-26.8V337l87 26.4V242.7zm-19.2 15.1l5.3 1.7-.5 34.8-5.3-1.7.5-34.8zm-10.5-3.3l5.3 1.7-.5 34.8-5.3-1.7.5-34.8zm-10.5-3.3l5.3 1.6-.5 34.8-5.3-1.6.5-34.8zm-10.6-3.3l5.3 1.7-.5 34.8-5.3-1.7.5-34.8zm-10.5-3.3l5.3 1.7-.5 34.8-5.3-1.7.5-34.8zm-.7 46.1l5.3 1.7-.5 34.8-5.3-1.7.5-34.8zm-9.8-49.4l5.3 1.6-.5 34.8-5.3-1.6.5-34.8zm-.7 46.1l5.3 1.6-.5 34.8-5.3-1.6.5-34.8zm20.5 41.4l.5-34.8 5.3 1.7-.5 34.8-5.3-1.7zm10.6 3.3l.5-34.8 5.3 1.6-.5 34.8-5.3-1.6zm10.5 3.3l.5-34.8 5.3 1.7-.5 34.8-5.3-1.7zm15.8 4.9l-5.3-1.7.5-34.8 5.3 1.7-.5 34.8z"/><path fill="#FFF" d="M409.7 243l-5.2-1.7-.5 34.9 5.2 1.6zM420.3 246.3l-5.3-1.7-.5 34.9 5.3 1.6zM430.8 249.6l-5.3-1.7-.5 34.9 5.3 1.6zM441.3 252.9l-5.2-1.7-.5 34.9 5.2 1.6zM451.9 256.2l-5.3-1.7-.5 34.9 5.3 1.6zM462.4 259.5l-5.3-1.7-.5 34.9 5.3 1.6zM409 289l-5.2-1.6-.5 34.8 5.2 1.6zM419.6 292.3l-5.3-1.6-.5 34.8 5.3 1.6zM430.1 295.6l-5.2-1.6-.6 34.8 5.3 1.6zM440.7 298.9l-5.3-1.6-.5 34.8 5.2 1.6zM451.2 302.2l-5.3-1.6-.5 34.8 5.3 1.6zM456.5 303.9l-.6 34.8 5.3 1.6.5-34.8z"/><path fill="#F33" d="M534.2 258.3l-1.4 4.6 2.7-.7z"/><path fill="#F33" d="M476.3 242.7v120.6l90.9-24.9V218.1l-90.9 24.6zm65.7 7.2l1.1-.3 6 6.3.1-7.9c1-.3 2.1-.6 3.2-.8l-.2 16.1-1.1.3-5.9-6.3-.1 7.9c-1.1.3-2.1.6-3.2.9l.1-16.2zm12.3 24.2l-.2 16.1-1.1.3-5.9-6.3-.1 7.9c-1.1.3-2.1.6-3.2.9l.2-16.1 1.1-.3 6 6.3.1-7.9c1-.4 2.1-.7 3.1-.9zm-18.7 17.3c1.2-.3 2-1 2.6-2.7l-2.6.7.1-3.6 5.7-1.5c0 1.6 0 3.1-.4 4.8-.9 3.6-3.2 5.5-5.4 6.1-3.1.8-6.1-1.1-6-6.6.1-5.5 3.2-9.1 6.3-9.9 2.4-.6 4.9.4 5.5 4.2l-3 .8c-.5-1.2-1.3-1.6-2.5-1.3-1.9.5-3 2.8-3 5.3-.3 2.8.9 4.2 2.7 3.7zm-7.6-22.3l5.7-17.1 1.3-.4 5.2 14.2v.6l-3 .8-.7-1.8-4.8 1.3-.7 2.2-3 .8v-.6zm.1 24.4l-.1 3.6-6.1 1.6.1-3.6 1.5-.4.1-8.9-1.4.4.1-3.6 5.9-1.6-.1 3.6-1.4.4-.1 8.9 1.5-.4zm-13.2-36.4l1.1-.3 4.6 5.7 4.9-8.3 1.1-.3-.2 16.1c-1 .3-2.1.6-3.1.8l.1-7.2-2.6 4.3-.3.1-2.5-2.9-.1 7.2c-1 .3-2.1.6-3.1.8l.1-16zm1.1 27c2.3-.6 4.6.5 4.5 4-1.1.3-1.9.5-2.9.8 0-1.1-.8-1.3-1.6-1.1-.8.2-1.7 1-1.8 2-.1 1.2.8 1.2 1.9 1.1 2.4-.3 4.7-.4 4.7 3.6-.1 3.4-2.5 5.7-4.9 6.4-2.5.7-4.9-.4-4.8-4 1-.3 1.9-.5 3-.8 0 1 1 1.3 1.9 1 .9-.2 1.8-.9 1.8-1.9 0-1.1-1-1.1-2.2-.9-2.6.4-4.3-.3-4.3-3.7 0-3.6 2.4-5.9 4.7-6.5zm-13.6-23.6c1-.3 2-.5 2.9-.8l-.2 10.6c0 1.3.9 1.7 1.8 1.5.9-.2 1.8-1.1 1.8-2.4l.2-10.6c1-.3 2-.5 2.9-.8l-.2 10.7c-.1 3.5-2.4 6.2-4.8 6.9-2.5.7-4.7-.8-4.7-4.3l.3-10.8zm-.7 27.6c2.8-.7 4.7-1.3 7.5-2 0 1.2 0 2.4-.1 3.7-1.8.5-2.7.7-4.5 1.2v2.3l4.1-1.1c0 1.2 0 2.4-.1 3.6l-4.1 1.1v2.8c1.8-.5 2.8-.8 4.6-1.2 0 1.2 0 2.4-.1 3.6-2.8.8-4.9 1.3-7.7 2.1.3-5.4.4-10.7.4-16.1zM489.4 264c1-.3 2.1-.6 3.2-.8l-.1 5.8 3.7-1 .1-5.8c1-.3 2.1-.6 3.1-.8l-.2 16.1c-1 .3-2.1.6-3.1.8l.1-6.5-3.7 1-.1 6.5c-1 .3-2.1.6-3.2.8l.2-16.1zm-.4 27.6l4.5-1.2c7.8-2 7.6 13.9-.2 16.1l-4.5 1.2.2-16.1zm6.8 41.5c-2.5.7-5 1.3-7.5 2l.2-16.1c1-.3 2-.5 3.1-.8-.1 8.3-.1 5.5-.2 12.4l4.4-1.2v3.7zm7.2-1.9l-6.1 1.6.1-3.6 1.5-.4.1-8.9-1.4.4.1-3.6 5.9-1.6-.1 3.6-1.4.4-.1 8.9 1.5-.4-.1 3.6zm5.2-6.6l-.1 5.2c-1 .3-2.1.6-3.1.8l.2-16.1c2.5-.7 5-1.4 7.5-2 0 1.4 0 2.3-.1 3.7l-4.4 1.2-.1 3.5 3.9-1c0 1.4 0 2.3-.1 3.7l-3.7 1zm14.4 1.4c-2.8.8-4.9 1.3-7.7 2.1.1-5.4.2-10.7.2-16.1 2.8-.7 4.7-1.3 7.5-2 0 1.2 0 2.4-.1 3.7-1.8.5-2.7.7-4.5 1.2v2.3l4.1-1.1c0 1.2 0 2.4-.1 3.6l-4.1 1.1v2.8c1.8-.5 2.8-.8 4.6-1.2.1 1.1.1 2.3.1 3.6z"/><path fill="#F33" d="M493.5 294.1l-1.5.4-.1 8.6 1.5-.4c3.8-1.1 3.9-9.7.1-8.6z"/><path fill="#FFF" d="M492.4 272.8l3.7-1-.1 6.5c1-.3 2.1-.6 3.1-.8l.2-16.1c-1 .3-2.1.6-3.1.8l-.1 5.8-3.7 1 .1-5.8c-1 .3-2.1.6-3.2.8l-.2 16.1c1-.3 2.1-.6 3.2-.8l.1-6.5zM506.9 275.5c2.5-.7 4.8-3.3 4.8-6.9l.2-10.7c-1 .3-2 .5-2.9.8l-.2 10.6c0 1.3-1 2.2-1.8 2.4-.9.2-1.8-.2-1.8-1.5l.2-10.6c-1 .3-2 .5-2.9.8l-.2 10.7c-.1 3.7 2.1 5.1 4.6 4.4zM517.9 265.2l2.5 2.9.3-.1 2.6-4.3-.1 7.2c1.1-.3 2.1-.6 3.1-.8l.2-16.1-1.1.3-4.9 8.3-4.6-5.7-1.1.3-.2 16.1c1-.3 2.1-.6 3.1-.8l.2-7.3zM531.7 266.7l4.8-1.3.7 1.8 3-.8v-.6l-5.2-14.2-1.3.4-5.7 17.1v.6l3-.8.7-2.2zm2.5-8.4l1.3 3.8-2.7.7 1.4-4.5zM545 257.3l5.9 6.3 1.1-.3.2-16.1c-1.1.3-2.1.6-3.2.8l-.1 7.9-6-6.3-1.1.3-.2 16.1c1.1-.3 2.1-.6 3.2-.9l.2-7.8zM493.5 290.3l-4.5 1.2-.2 16.1 4.5-1.2c7.8-2.2 8-18.1.2-16.1zm-1.5 4.2l1.5-.4c3.8-1 3.7 7.6-.1 8.6l-1.5.4.1-8.6zM509.2 298.5c-1.8.5-2.8.8-4.6 1.2v-2.8l4.1-1.1c0-1.2 0-2.4.1-3.6l-4.1 1.1V291c1.8-.5 2.7-.7 4.5-1.2 0-1.2 0-2.5.1-3.7-2.8.8-4.7 1.3-7.5 2-.1 5.3-.2 10.7-.2 16.1 2.8-.7 4.9-1.3 7.7-2.1-.1-1.2-.1-2.4-.1-3.6zM515.6 294.2c1.2-.2 2.2-.2 2.2.9 0 .9-.9 1.6-1.8 1.9-1 .3-1.9 0-1.9-1-1.1.3-1.9.5-3 .8-.1 3.5 2.3 4.6 4.8 4 2.4-.7 4.9-3 4.9-6.4.1-4-2.3-3.9-4.7-3.6-1.1.1-2 .1-1.9-1.1.1-1 .9-1.7 1.8-2 .8-.2 1.6.1 1.6 1.1 1.1-.3 1.8-.5 2.9-.8.1-3.5-2.2-4.6-4.5-4-2.3.6-4.7 3-4.7 6.4 0 3.6 1.7 4.3 4.3 3.8zM528.2 284.6V281l-5.9 1.6v3.6l1.4-.4-.1 8.9-1.6.4v3.6l6.1-1.6v-3.6l-1.5.4.1-8.9zM535.7 282.6c1.2-.3 2 0 2.5 1.3l3-.8c-.5-3.8-3-4.8-5.5-4.2-3.1.8-6.2 4.4-6.3 9.9-.1 5.5 3 7.4 6 6.6 2.2-.6 4.5-2.5 5.4-6.1.4-1.7.5-3.2.4-4.8l-5.7 1.5-.1 3.6 2.6-.7c-.6 1.7-1.4 2.3-2.6 2.7-1.8.5-3-.9-2.9-3.6.2-2.6 1.3-4.9 3.2-5.4zM551 282.8l-6-6.3-1.1.3-.2 16.1c1-.3 2.1-.6 3.2-.9l.1-7.9 5.9 6.3 1.1-.3.2-16.1c-1 .3-2.1.6-3.1.8l-.1 8zM491.6 318.3c-1 .3-2.1.6-3.1.8l-.2 16.1c2.4-.7 5-1.3 7.5-2 0-1.4 0-2.3.1-3.7l-4.4 1.2c0-6.9 0-4.1.1-12.4zM501.6 319.1l1.5-.3v-3.6l-5.9 1.6v3.5l1.4-.3-.1 8.8-1.6.4v3.6l6.1-1.6v-3.6l-1.5.4zM512.1 319.9l-3.9 1 .1-3.5 4.4-1.2c0-1.4 0-2.3.1-3.7-2.5.7-5 1.3-7.5 2l-.2 16.1c1-.3 2.1-.6 3.1-.8l.1-5.2 3.9-1c-.1-1.4-.1-2.3-.1-3.7zM518 323.6v-2.8l4.1-1.1c0-1.2 0-2.4.1-3.6l-4.1 1.1v-2.3c1.8-.5 2.7-.7 4.5-1.2 0-1.2 0-2.5.1-3.7-2.8.8-4.7 1.3-7.5 2-.1 5.3-.2 10.7-.2 16.1 2.8-.7 4.9-1.3 7.7-2.1 0-1.2 0-2.5.1-3.6-2 .4-3 .7-4.8 1.2z"/></svg>