<?xml version="1.0" encoding="utf-8"?>
<!-- Generator: Adobe Illustrator 17.1.0, SVG Export Plug-In . SVG Version: 6.00 Build 0)  -->
<!DOCTYPE svg PUBLIC "-//W3C//DTD SVG 1.1//EN" "http://www.w3.org/Graphics/SVG/1.1/DTD/svg11.dtd">
<svg version="1.1" id="Слой_1" xmlns="http://www.w3.org/2000/svg" xmlns:xlink="http://www.w3.org/1999/xlink" x="0px" y="0px"
	 viewBox="0 0 169.3 31.2" enable-background="new 0 0 169.3 31.2" xml:space="preserve">
<g>
	<path fill="#FFFFFF" d="M11.4,14c-1,0-2,0-2.9,0V9.5H5V14c-1,0-2,0-2.9,0V2.8c1,0,2,0,2.9,0v4.1h3.5V2.8c1,0,2,0,2.9,0V14z"/>
	<path fill="#FFFFFF" d="M20.3,10.3V2.8c0.9,0,1.8,0,2.7,0v7.5c0,2.5-2.1,3.9-4.4,3.9c-2.3,0-4.4-1.4-4.4-3.9V2.8c0.9,0,1.8,0,2.7,0
		v7.4c0,0.9,0.9,1.4,1.7,1.4C19.4,11.6,20.3,11.2,20.3,10.3z"/>
	<path fill="#FFFFFF" d="M35.7,2.8h1V14c-1,0-2,0-2.9,0V9l-2.4,2.5h-0.3L28.7,9v5c-1,0-2,0-2.9,0V2.8h1.1l4.4,4.9L35.7,2.8z"/>
	<path fill="#FFFFFF" d="M46,12.6h-4.4L40.9,14h-2.8v-0.4l5-10.9h1.2l5.1,10.9V14h-2.8L46,12.6z M43.8,7.2l-1.3,2.9h2.6L43.8,7.2z"
		/>
	<path fill="#FFFFFF" d="M53.9,8.5V14c-1,0-2,0-3,0V2.8h1l5.7,5.5V2.8c1,0,2,0,2.9,0v11.2h-1L53.9,8.5z"/>
	<path fill="#FFFFFF" d="M72,14h-4.2V2.8H72C79.3,2.9,79.3,14,72,14z M70.7,11.4H72c3.6,0,3.6-6,0-6h-1.4V11.4z"/>
	<path fill="#FFFFFF" d="M86.7,5.4c-1.7,0-2.5,0-4.1,0V7h3.8c0,0.8,0,1.7,0,2.5h-3.8c0,0.7,0,1.3,0,2c1.6,0,2.6,0,4.3,0
		c0,0.8,0,1.7,0,2.5c-2.6,0-4.5,0-7.1,0c0-3.7,0-7.5,0-11.2c2.6,0,4.4,0,7,0C86.7,3.7,86.7,4.5,86.7,5.4z"/>
	<path fill="#FFFFFF" d="M94.8,10.7c0-0.8-0.9-1-2-1c-2.4-0.2-4-1-4.1-3.4c-0.1-4.8,8.6-4.8,8.5,0c-1,0-1.7,0-2.7,0
		c0-1.5-3-1.4-3.1,0c-0.1,0.8,0.8,1,1.8,1.1c2.2,0.2,4.4,0.6,4.4,3.4c0,4.7-9.1,4.8-9.1-0.1c1,0,1.8,0,2.8,0
		C91.3,12,94.8,12.1,94.8,10.7z"/>
	<path fill="#FFFFFF" d="M104.4,11.5V14h-5.7v-2.5h1.4V5.3h-1.3V2.8h5.5v2.5H103v6.2H104.4z"/>
	<path fill="#FFFFFF" d="M111.3,2.7c2.3,0,4.6,1.2,5.2,4h-2.8c-0.5-1-1.2-1.3-2.3-1.3c-1.8,0-2.8,1.4-2.8,3.1c0,1.9,1.1,3.1,2.8,3.1
		c1.2,0,1.9-0.3,2.4-1.4h-2.4V7.7h5.3c0.1,1.1,0.1,2.2-0.3,3.3c-0.8,2.3-2.9,3.2-5,3.2c-2.8,0-5.7-1.9-5.7-5.7
		C105.6,4.6,108.5,2.7,111.3,2.7z"/>
	<path fill="#FFFFFF" d="M121.9,8.5V14c-1,0-2,0-3,0V2.8h1l5.7,5.5V2.8c1,0,2,0,2.9,0v11.2h-1L121.9,8.5z"/>
	<path fill="#FFFFFF" d="M138.7,11.5h4.1c0,1,0,1.6,0,2.6c-2.3,0-4.7,0-6.9,0V2.8c1,0,1.9,0,2.9,0C138.7,8.6,138.7,6.7,138.7,11.5z"
		/>
	<path fill="#FFFFFF" d="M149.4,11.5V14h-5.7v-2.5h1.4V5.3h-1.3V2.8h5.5v2.5H148v6.2H149.4z"/>
	<path fill="#FFFFFF" d="M154.2,10.4V14c-1,0-1.9,0-2.9,0V2.8c2.3,0,4.7,0,7,0c0,0.9,0,1.6,0,2.6h-4.1v2.4h3.6c0,1,0,1.6,0,2.6
		H154.2z"/>
	<path fill="#FFFFFF" d="M167.5,5.4c-1.7,0-2.5,0-4.1,0V7h3.8c0,0.8,0,1.7,0,2.5h-3.8c0,0.7,0,1.3,0,2c1.6,0,2.6,0,4.3,0
		c0,0.8,0,1.7,0,2.5c-2.6,0-4.5,0-7.1,0c0-3.7,0-7.5,0-11.2c2.6,0,4.4,0,7,0C167.5,3.7,167.5,4.5,167.5,5.4z"/>
	<path fill="#FFFFFF" d="M45.8,28.4h-1.4l-3.3-4.3h0v4.3h-1.1v-4.3h0l-3.3,4.3h-1.4l3.5-4.5l-3.2-4.1h1.3l3,4h0v-4h1.1v4h0l3-4h1.3
		L42.3,24L45.8,28.4z"/>
	<path fill="#FFFFFF" d="M51.2,28.4v-2.4c0-0.9,0-1.8,0-2.7h0c-0.3,0.6-0.8,1.5-1.4,2.5l-1.5,2.6h-1.6v-6.1h1.1v2.4
		c0,0.9,0,1.8,0,2.7h0c0.4-0.7,0.8-1.5,1.4-2.5l1.5-2.6h1.6v6.1H51.2z"/>
	<path fill="#FFFFFF" d="M56.3,23.2v5.3h-1.1v-5.3h-2.1v-0.8l5.2,0v0.8H56.3z"/>
	<path fill="#FFFFFF" d="M61.8,24.6c0.8,0,1.3,0.2,1.7,0.5s0.6,0.8,0.6,1.4s-0.2,1.1-0.6,1.4s-1,0.5-1.7,0.5h-2.5v-6.1h1.1v2.3H61.8
		z M60.3,27.6h1.4c0.9,0,1.3-0.4,1.3-1.1s-0.4-1.1-1.3-1.1h-1.4V27.6z"/>
	<path fill="#FFFFFF" d="M72,22.5c0.4,0.2,0.7,0.5,0.9,0.8c0.2,0.4,0.4,0.8,0.4,1.2h-1.1c0-0.4-0.2-0.8-0.5-1.1
		c-0.3-0.3-0.6-0.4-1-0.4c-0.5,0-1,0.2-1.3,0.6c-0.3,0.4-0.5,1-0.5,1.7s0.2,1.3,0.5,1.7s0.7,0.6,1.3,0.6c0.4,0,0.8-0.1,1-0.4
		c0.3-0.3,0.4-0.7,0.5-1.1h1.1c0,0.5-0.2,0.9-0.4,1.2s-0.5,0.7-0.9,0.9c-0.4,0.2-0.8,0.3-1.3,0.3c-0.6,0-1.1-0.1-1.5-0.4
		s-0.8-0.6-1-1.1s-0.3-1.1-0.3-1.7s0.1-1.2,0.3-1.7s0.6-0.9,1-1.1s0.9-0.4,1.5-0.4C71.1,22.2,71.6,22.3,72,22.5z"/>
	<path fill="#FFFFFF" d="M78.8,22.8c0.4,0.3,0.6,0.7,0.6,1.2c0,0.7-0.4,1.1-1.1,1.4v0c0.4,0.1,0.7,0.2,0.9,0.5s0.3,0.6,0.3,0.9
		c0,0.5-0.2,1-0.6,1.3c-0.4,0.3-0.9,0.4-1.6,0.4h-2.6v-6.1h2.4C77.8,22.3,78.4,22.5,78.8,22.8z M75.7,25H77c0.9,0,1.3-0.3,1.3-0.9
		s-0.4-0.9-1.3-0.9h-1.3V25z M75.7,27.7H77c0.9,0,1.4-0.3,1.4-1c0-0.7-0.5-1-1.4-1h-1.3V27.7z"/>
	<path fill="#FFFFFF" d="M85.5,23c0.5,0.6,0.8,1.4,0.8,2.4s-0.3,1.8-0.8,2.4c-0.5,0.6-1.2,0.9-2.1,0.9c-0.9,0-1.6-0.3-2.1-0.9
		s-0.8-1.4-0.8-2.4s0.3-1.8,0.8-2.4c0.5-0.6,1.2-0.9,2.1-0.9C84.3,22.2,85,22.5,85.5,23z M82.1,23.7c-0.3,0.4-0.5,1-0.5,1.7
		s0.2,1.3,0.5,1.7c0.3,0.4,0.8,0.6,1.3,0.6c0.6,0,1-0.2,1.3-0.6c0.3-0.4,0.5-1,0.5-1.7s-0.2-1.3-0.5-1.7C84.4,23.3,84,23,83.4,23
		C82.9,23,82.4,23.3,82.1,23.7z"/>
	<path fill="#FFFFFF" d="M94.4,22.6c0.4,0.3,0.8,0.6,1,1.1s0.4,1.1,0.4,1.7s-0.1,1.2-0.4,1.7s-0.6,0.9-1,1.1s-0.9,0.4-1.5,0.4
		c-0.8,0-1.5-0.2-2-0.7s-0.8-1.2-0.9-2.1h-1.2v2.6h-1.1v-6.1h1.1V25l1.2,0c0.1-0.9,0.4-1.6,0.9-2.1s1.2-0.7,2-0.7
		C93.5,22.2,94,22.3,94.4,22.6z M94.2,27.1c0.3-0.4,0.5-1,0.5-1.7s-0.2-1.3-0.5-1.7c-0.3-0.4-0.8-0.6-1.3-0.6c-0.6,0-1,0.2-1.3,0.6
		c-0.3,0.4-0.5,1-0.5,1.7s0.2,1.3,0.5,1.7c0.3,0.4,0.8,0.6,1.3,0.6C93.5,27.7,93.9,27.5,94.2,27.1z"/>
	<path fill="#FFFFFF" d="M106,28.4l-2.3-3.2h0v3.2h-1v-3.2h0l-2.3,3.2h-1.4l2.6-3.3l-2.3-2.8h1.3l2.1,2.7h0v-2.7h1V25h0l2.1-2.7h1.3
		l-2.3,2.8l2.6,3.3H106z"/>
	<path fill="#FFFFFF" d="M112.7,28.4v-2.4c0-0.9,0-1.8,0-2.7h0c-0.3,0.6-0.8,1.5-1.4,2.5l-1.5,2.6h-1.6v-6.1h1.1v2.4
		c0,0.9,0,1.8,0,2.7h0c0.4-0.7,0.8-1.5,1.4-2.5l1.5-2.6h1.6v6.1H112.7z"/>
	<path fill="#FFFFFF" d="M119.3,22.6c0.4,0.3,0.6,0.7,0.6,1.3c0,0.4-0.1,0.6-0.3,0.9c-0.2,0.2-0.4,0.4-0.8,0.5v0
		c0.4,0.1,0.7,0.3,0.9,0.6c0.2,0.2,0.3,0.6,0.3,1c0,0.6-0.2,1-0.7,1.3c-0.4,0.3-1,0.5-1.8,0.5c-0.8,0-1.4-0.2-1.9-0.5
		c-0.4-0.4-0.7-0.9-0.7-1.5h1.1c0,0.8,0.5,1.2,1.4,1.2c0.4,0,0.7-0.1,1-0.3c0.2-0.2,0.4-0.4,0.4-0.7c0-0.3-0.1-0.6-0.4-0.8
		c-0.3-0.2-0.6-0.3-1.2-0.3h-0.6V25h0.6c0.4,0,0.8-0.1,1-0.3c0.3-0.2,0.4-0.4,0.4-0.7c0-0.3-0.1-0.5-0.3-0.7S118,23,117.6,23
		c-0.4,0-0.7,0.1-1,0.3c-0.2,0.2-0.3,0.5-0.3,0.9h-1.1c0-0.6,0.2-1.1,0.6-1.5c0.4-0.4,1-0.5,1.8-0.5
		C118.4,22.2,118.9,22.3,119.3,22.6z"/>
	<path fill="#FFFFFF" d="M125.7,28.4v-2.6h-3.1v2.6h-1.1v-6.1h1.1V25h3.1v-2.6h1.1v6.1H125.7z"/>
	<path fill="#FFFFFF" d="M131.2,24.6c0.8,0,1.3,0.2,1.7,0.5s0.6,0.8,0.6,1.4s-0.2,1.1-0.6,1.4s-1,0.5-1.7,0.5h-2.5v-6.1h1.1v2.3
		H131.2z M129.7,27.6h1.4c0.9,0,1.3-0.4,1.3-1.1s-0.4-1.1-1.3-1.1h-1.4V27.6z"/>
</g>
</svg>
