<?xml version="1.0" encoding="utf-8"?>
<!-- Generator: Adobe Illustrator 17.1.0, SVG Export Plug-In . SVG Version: 6.00 Build 0)  -->
<!DOCTYPE svg PUBLIC "-//W3C//DTD SVG 1.1//EN" "http://www.w3.org/Graphics/SVG/1.1/DTD/svg11.dtd">
<svg version="1.1" id="Слой_1" xmlns="http://www.w3.org/2000/svg" xmlns:xlink="http://www.w3.org/1999/xlink" x="0px" y="0px"
	 viewBox="-518.1 -465.1 989.1 858.7" enable-background="new -518.1 -465.1 989.1 858.7" xml:space="preserve">
<path d="M462.1,393.7h-971.3c-3.2,0-6.1-1.6-7.7-4.3s-1.6-6.1,0-8.8l485.6-841.2c1.6-2.7,4.5-4.3,7.7-4.3c3.2,0,6.1,1.6,7.7,4.3
	l157.1,272c2.4,4.2,1,9.6-3.2,12.1s-9.6,1-12.1-3.2L-23.5-438.7L-493.9,376H447L210.2-44c-2.4-4.2-1-9.6,3.4-12.1
	c4.2-2.4,9.6-1,12.1,3.4l244.2,433.2c1.6,2.7,1.4,6.1,0,8.8C468.1,392.1,465.2,393.7,462.1,393.7L462.1,393.7z"/>
<path d="M420.2-292.9l-64.9-64.9c-12.9-12.9-33.8-12.9-46.6,0L-44.7-4.3C-50.5,1.4-55,8.2-57.9,15.9l-45.3,118.2c0,0,0,0,0,0.2
	c-3.4,9.2-1.1,19,5.6,25.9c4.7,4.7,10.9,7.2,17.4,7.2c2.9,0,5.8-0.5,8.5-1.6c0,0,0,0,0.2,0l118.2-45.3c7.7-2.9,14.5-7.4,20.3-13.2
	l353.3-353.5C433-259.1,433-280,420.2-292.9L420.2-292.9L420.2-292.9z M-43.8,22.8l83.4,83.4L-16.9,128l-48.5-48.5L-43.8,22.8
	L-43.8,22.8z M-77.2,150.9c-3.4,1.3-6.8,0.5-9.3-2.1s-3.2-5.9-2.1-9.3l16.9-44.2l38.6,38.6L-77.2,150.9z M409.1-257.4L55.6,96
	c-0.6,0.6-1.4,1.3-2.1,1.9L-35.6,8.7c0.6-0.6,1.3-1.4,1.9-2.1l353.3-353.3c6.8-6.8,17.7-6.8,24.4,0l64.9,64.9
	C415.8-275,415.8-264.1,409.1-257.4L409.1-257.4L409.1-257.4z"/>
</svg>
