<?xml version="1.0" encoding="utf-8"?>
<!-- Generated by IcoMoon.io -->
<!DOCTYPE svg PUBLIC "-//W3C//DTD SVG 1.1//EN" "http://www.w3.org/Graphics/SVG/1.1/DTD/svg11.dtd">
<svg version="1.1" xmlns="http://www.w3.org/2000/svg" xmlns:xlink="http://www.w3.org/1999/xlink" width="32" height="32" viewBox="0 0 32 32">
<path d="M29.103 29.61v-28.523c0-0.868-0.866-1.086-1.088-1.086s-21.854 0-21.854 0c-3.263 0-3.265 3.019-3.265 3.019v27.823c0 0.638 0.519 1.158 1.162 1.158h20.867c0.638 0 1.156-0.52 1.156-1.158l1.86-0.005c1.248 0.001 1.161-1.228 1.161-1.228zM20.562 9.639h-11.967v-2.261h11.967v2.261zM26.653 28.494c-0.445 0-0.571 0.002-0.571 0.002v-24.266c0-0.643-0.519-1.161-1.156-1.161l-19.745-0.006c0-0.796 0.816-1.201 1.196-1.201 0.259 0 19.705 0 19.705 0 1.234 0 1.198 1.086 1.198 1.086l0.001 24.843c-0 0.162 0.059 0.702-0.627 0.702z"></path>
</svg>
