<?xml version="1.0" encoding="utf-8"?>
<!-- Generated by IcoMoon.io -->
<!DOCTYPE svg PUBLIC "-//W3C//DTD SVG 1.1//EN" "http://www.w3.org/Graphics/SVG/1.1/DTD/svg11.dtd">
<svg version="1.1" xmlns="http://www.w3.org/2000/svg" xmlns:xlink="http://www.w3.org/1999/xlink" width="32" height="32" viewBox="0 0 32 32">
<path d="M17.422 0.845l-17.422 17.422 13.694 13.694 17.42-17.42 0.886-14.501-14.578 0.805zM29.583 13.851l-15.889 15.889-11.473-11.473 15.887-15.887 12.217-0.675-0.742 12.146z"></path>
<path d="M24.649 10.452c0.839 0 1.627-0.327 2.221-0.92 1.224-1.224 1.224-3.217-0-4.441-0.593-0.593-1.382-0.92-2.221-0.92s-1.627 0.327-2.221 0.92c-0.593 0.593-0.92 1.382-0.92 2.221s0.327 1.627 0.92 2.221c0.593 0.593 1.382 0.92 2.221 0.92zM23.538 6.201c0.297-0.297 0.691-0.46 1.11-0.46s0.814 0.163 1.11 0.46c0.612 0.612 0.612 1.609 0 2.221-0.297 0.297-0.691 0.46-1.11 0.46s-0.814-0.163-1.11-0.46c-0.297-0.297-0.46-0.691-0.46-1.11s0.163-0.814 0.46-1.11z"></path>
</svg>
