<?xml version="1.0" encoding="utf-8"?>
<!-- Generated by IcoMoon.io -->
<!DOCTYPE svg PUBLIC "-//W3C//DTD SVG 1.1//EN" "http://www.w3.org/Graphics/SVG/1.1/DTD/svg11.dtd">
<svg version="1.1" xmlns="http://www.w3.org/2000/svg" xmlns:xlink="http://www.w3.org/1999/xlink" width="32" height="32" viewBox="0 0 32 32">
<path d="M31.813 15.467c-5.024-6.089-10.426-9.083-16.056-8.939-9.083 0.254-15.336 8.62-15.598 8.976-0.012 0.017-0.020 0.035-0.031 0.053-0.009 0.013-0.017 0.027-0.025 0.042-0.019 0.033-0.035 0.067-0.048 0.101-0.006 0.017-0.012 0.033-0.017 0.050-0.010 0.033-0.019 0.066-0.025 0.099-0.004 0.022-0.007 0.043-0.009 0.065-0.003 0.028-0.005 0.057-0.005 0.085s0.002 0.057 0.005 0.085c0.003 0.022 0.005 0.043 0.009 0.065 0.006 0.033 0.015 0.066 0.025 0.099 0.005 0.017 0.011 0.033 0.017 0.050 0.013 0.035 0.030 0.068 0.048 0.101 0.008 0.014 0.015 0.028 0.025 0.042 0.010 0.017 0.019 0.036 0.031 0.053 0.262 0.356 6.514 8.722 15.598 8.976 0.14 0.004 0.28 0.006 0.42 0.006 5.478 0 10.737-3.008 15.636-8.945 0.129-0.156 0.187-0.345 0.187-0.532s-0.058-0.377-0.187-0.532zM15.814 23.804c-7.062-0.192-12.459-6.053-13.917-7.805 1.458-1.752 6.854-7.613 13.917-7.805 4.929-0.129 9.717 2.497 14.26 7.805-4.543 5.308-9.326 7.947-14.26 7.805z"></path>
<path d="M16.418 10.51c-3.027 0-5.49 2.463-5.49 5.49s2.463 5.49 5.49 5.49 5.49-2.463 5.49-5.49c0-3.027-2.463-5.49-5.49-5.49zM16.418 19.822c-2.108 0-3.822-1.715-3.822-3.822s1.715-3.822 3.822-3.822 3.822 1.715 3.822 3.822-1.715 3.822-3.822 3.822z"></path>
</svg>
