<?xml version="1.0" encoding="utf-8"?>
<!-- Generated by IcoMoon.io -->
<!DOCTYPE svg PUBLIC "-//W3C//DTD SVG 1.1//EN" "http://www.w3.org/Graphics/SVG/1.1/DTD/svg11.dtd">
<svg version="1.1" xmlns="http://www.w3.org/2000/svg" xmlns:xlink="http://www.w3.org/1999/xlink" width="32" height="32" viewBox="0 0 32 32">
<path d="M4.107 0h23.785c2.259 0 4.107 1.672 4.107 4.107v23.786c0 2.435-1.848 4.107-4.107 4.107h-23.785c-2.26 0-4.107-1.672-4.107-4.107v-23.786c0-2.435 1.848-4.107 4.107-4.107v0zM23.311 3.555c-0.792 0-1.44 0.648-1.44 1.441v3.448c0 0.792 0.648 1.441 1.44 1.441h3.617c0.792 0 1.441-0.648 1.441-1.441v-3.448c0-0.793-0.648-1.441-1.441-1.441h-3.617zM28.383 13.533h-2.816c0.266 0.87 0.411 1.792 0.411 2.745 0 5.323-4.454 9.637-9.947 9.637s-9.946-4.315-9.946-9.637c0-0.954 0.144-1.875 0.411-2.745h-2.939v13.517c0 0.7 0.572 1.272 1.272 1.272h22.284c0.7 0 1.272-0.572 1.272-1.272v-13.517h-0.001zM16.030 9.703c-3.549 0-6.427 2.788-6.427 6.227s2.878 6.227 6.427 6.227c3.549 0 6.427-2.788 6.427-6.227s-2.878-6.227-6.427-6.227z"></path>
</svg>
