<?xml version="1.0" encoding="utf-8"?>
<!-- Generated by IcoMoon.io -->
<!DOCTYPE svg PUBLIC "-//W3C//DTD SVG 1.1//EN" "http://www.w3.org/Graphics/SVG/1.1/DTD/svg11.dtd">
<svg version="1.1" xmlns="http://www.w3.org/2000/svg" xmlns:xlink="http://www.w3.org/1999/xlink" width="32" height="32" viewBox="0 0 32 32">
<path d="M26.196 10.196c0-5.622-4.574-10.196-10.196-10.196s-10.196 4.574-10.196 10.196c0 3.9 1.565 5.974 2.946 7.805 1.166 1.546 2.173 2.88 2.173 5.226l-0.001 4.285c0 2.475 1.989 4.489 4.464 4.489h1.226c2.475 0 4.472-2.014 4.472-4.489l-0.009-4.285c0-2.346 1.007-3.68 2.173-5.226 1.381-1.83 2.946-3.905 2.946-7.805zM16.613 29.922h-1.226c-1.061 0-1.963-0.689-2.284-1.642h5.795c-0.322 0.953-1.224 1.642-2.284 1.642zM19.024 26.202h-6.047v-0.993h6.047v0.993zM18.999 23.131h-5.998c-0.027-2.983-1.331-4.71-2.592-6.382-1.3-1.722-2.527-3.349-2.527-6.553 0-4.476 3.642-8.118 8.118-8.118s8.118 3.642 8.118 8.118c0 3.204-1.227 4.831-2.527 6.553-1.261 1.671-2.565 3.399-2.592 6.382z"></path>
<path d="M14.51 18.317c0.539-0.196 0.817-0.793 0.621-1.332l-2.259-6.203 0.766-1.199 1.656 1.534c0.398 0.369 1.014 0.369 1.412 0l1.656-1.534 0.766 1.199-2.259 6.203c-0.196 0.539 0.081 1.135 0.621 1.332 0.117 0.043 0.237 0.063 0.355 0.063 0.424 0 0.823-0.262 0.976-0.684l2.435-6.685c0.111-0.304 0.073-0.642-0.101-0.915l-1.712-2.679c-0.166-0.259-0.438-0.432-0.743-0.471s-0.612 0.059-0.838 0.268l-1.862 1.725-1.862-1.725c-0.226-0.209-0.534-0.307-0.838-0.268s-0.578 0.212-0.743 0.471l-1.712 2.679c-0.174 0.273-0.211 0.611-0.101 0.915l2.435 6.685c0.196 0.539 0.793 0.817 1.332 0.621z"></path>
</svg>
