<?xml version="1.0" encoding="utf-8"?>
<!-- Generated by IcoMoon.io -->
<!DOCTYPE svg PUBLIC "-//W3C//DTD SVG 1.1//EN" "http://www.w3.org/Graphics/SVG/1.1/DTD/svg11.dtd">
<svg version="1.1" xmlns="http://www.w3.org/2000/svg" xmlns:xlink="http://www.w3.org/1999/xlink" width="32" height="32" viewBox="0 0 32 32">
<path d="M1.875 5.75c-0.5 0-0.813 0.042-0.938 0.125s-0.146 0.177-0.063 0.281 0.292 0.281 0.625 0.531c0.167 0.125 0.292 0.229 0.375 0.313l14.125 10.75 14.125-10.688 0.313-0.313c0.333-0.25 0.552-0.427 0.656-0.531s0.094-0.208-0.031-0.313-0.438-0.156-0.938-0.156h-28.25z"></path>
<path d="M0 8.25v15.875c0 0.458 0.188 0.927 0.563 1.406s0.75 0.719 1.125 0.719h28.625c0.375 0 0.75-0.24 1.125-0.719s0.563-0.948 0.563-1.406v-15.875l-16 12.25-16-12.25z"></path>
</svg>
