<?xml version="1.0" encoding="utf-8"?>
<!-- Generated by IcoMoon.io -->
<!DOCTYPE svg PUBLIC "-//W3C//DTD SVG 1.1//EN" "http://www.w3.org/Graphics/SVG/1.1/DTD/svg11.dtd">
<svg version="1.1" xmlns="http://www.w3.org/2000/svg" xmlns:xlink="http://www.w3.org/1999/xlink" width="32" height="32" viewBox="0 0 32 32">
<path d="M7.746 16c0 2.621 2.125 4.74 4.74 4.74s4.74-2.125 4.74-4.74c0-2.621-2.125-4.74-4.74-4.74s-4.74 2.119-4.74 4.74zM12.896 13.164c0 0.287 0 0.287 0.287 0.332 0.222 0.033 0.43 0.098 0.632 0.189 0.111 0.052 0.156 0.13 0.117 0.248-0.052 0.176-0.098 0.352-0.156 0.528-0.052 0.163-0.104 0.189-0.261 0.111-0.319-0.156-0.652-0.215-1.004-0.196-0.091 0.007-0.183 0.020-0.267 0.052-0.306 0.13-0.352 0.469-0.098 0.672 0.13 0.104 0.28 0.183 0.437 0.248 0.267 0.111 0.541 0.215 0.795 0.359 0.815 0.45 1.030 1.473 0.456 2.165-0.209 0.254-0.476 0.417-0.789 0.509-0.137 0.039-0.196 0.111-0.189 0.254 0.007 0.137 0 0.28 0 0.417 0 0.124-0.065 0.189-0.189 0.196-0.15 0.007-0.3 0.007-0.45 0-0.13 0-0.196-0.078-0.196-0.209 0-0.104 0-0.202 0-0.306 0-0.228-0.007-0.235-0.228-0.267-0.28-0.046-0.548-0.104-0.802-0.228-0.202-0.098-0.222-0.15-0.163-0.359 0.046-0.156 0.085-0.313 0.137-0.463 0.059-0.176 0.104-0.202 0.267-0.117 0.28 0.143 0.58 0.228 0.893 0.267 0.202 0.026 0.398 0.007 0.587-0.078 0.346-0.15 0.404-0.554 0.111-0.802-0.098-0.085-0.215-0.143-0.332-0.196-0.306-0.137-0.626-0.235-0.913-0.411-0.469-0.28-0.763-0.665-0.73-1.232 0.039-0.645 0.404-1.043 0.991-1.258 0.241-0.091 0.248-0.085 0.248-0.339 0-0.085 0-0.169 0-0.261 0.007-0.189 0.039-0.222 0.228-0.228 0.059 0 0.117 0 0.176 0 0.404-0.007 0.404-0.007 0.404 0.404zM5.587 14.69c0.724 0 1.31 0.587 1.31 1.31s-0.587 1.31-1.31 1.31-1.31-0.587-1.31-1.31c0-0.724 0.587-1.31 1.31-1.31zM0 21.568v-11.136c0-1.193 0.971-2.165 2.165-2.165h20.642c1.193 0 2.165 0.971 2.165 2.165v4.479h-1.337c-0.183 0-0.352 0.033-0.515 0.085v-2.223c-0.176 0.046-0.352 0.065-0.541 0.065-1.213 0-2.191-0.978-2.191-2.191 0-0.183 0.026-0.365 0.065-0.535h-16.071c0.026 0.13 0.039 0.267 0.039 0.404 0 1.213-0.978 2.191-2.191 2.191-0.13 0-0.261-0.013-0.385-0.033v6.65c0.124-0.020 0.254-0.033 0.385-0.033 1.213 0 2.191 0.978 2.191 2.191 0 0.137-0.013 0.274-0.039 0.404h13.294v1.343c0 0.176 0.026 0.346 0.078 0.502h-15.595c-1.193 0-2.158-0.971-2.158-2.165zM23.634 16.052h2.23c0.28 0 0.502 0.228 0.502 0.502v6.663c0 0.28-0.228 0.502-0.502 0.502h-2.23c-0.28 0-0.502-0.228-0.502-0.502v-6.657c0-0.28 0.222-0.509 0.502-0.509zM21.548 18.38c0.28 0 0.502 0.228 0.502 0.502v4.342c0 0.28-0.228 0.502-0.502 0.502h-2.223c-0.28 0-0.502-0.228-0.502-0.502v-4.342c0-0.28 0.228-0.502 0.502-0.502h2.223zM31.934 13.099c0.17 0.248-0.007 0.587-0.313 0.587h-0.945v9.538c0 0.28-0.228 0.502-0.502 0.502h-2.23c-0.28 0-0.502-0.228-0.502-0.502v-9.538h-0.945c-0.3 0-0.482-0.339-0.313-0.587l2.562-3.742c0.15-0.215 0.469-0.215 0.619 0l2.569 3.742z"></path>
</svg>
