<?xml version="1.0" encoding="utf-8"?>
<!-- Generated by IcoMoon.io -->
<!DOCTYPE svg PUBLIC "-//W3C//DTD SVG 1.1//EN" "http://www.w3.org/Graphics/SVG/1.1/DTD/svg11.dtd">
<svg version="1.1" xmlns="http://www.w3.org/2000/svg" xmlns:xlink="http://www.w3.org/1999/xlink" width="32" height="32" viewBox="0 0 32 32">
<path d="M6 7v0l20-0c0.553 0 1-0.447 1-1s-0.447-1-1-1c-0.001 0-0.002 0-0.002 0h-19.995c-0.001 0-0.002-0-0.002-0-0.552 0-1 0.448-1 1s0.448 1 1 1z"></path>
<path d="M6 11.001h10c0.553 0 1-0.448 1-1s-0.447-1-1-1h-10c-0.552 0-1 0.448-1 1s0.448 1 1 1z"></path>
<path d="M6 15.001h6c0.553 0 1-0.448 1-1s-0.447-1-1-1h-6c-0.552 0-1 0.448-1 1s0.448 1 1 1z"></path>
<path d="M22 19c1.103 0 2-0.897 2-2s-0.897-2-2-2-2 0.897-2 2c0 1.103 0.897 2 2 2z"></path>
<path d="M31 0h-30c-0.552 0-1 0.448-1 1v20c0 0.55 0.45 1 1 1h16v9c0 0.379 0.214 0.725 0.553 0.895s0.744 0.132 1.047-0.095l3.4-2.55 3.4 2.55c0.177 0.132 0.388 0.2 0.6 0.2 0.152 0 0.306-0.035 0.447-0.105 0.339-0.169 0.553-0.516 0.553-0.895v-9h4c0.55 0 1-0.45 1-1v-20c0-0.55-0.45-1-1-1zM18.147 15.496l-0.176-0.822 0.8-0.258c0.306-0.099 0.546-0.338 0.645-0.645l0.258-0.8 0.821 0.176c0.314 0.069 0.642-0.020 0.881-0.236l0.624-0.564 0.623 0.564c0.238 0.216 0.569 0.304 0.881 0.236l0.822-0.176 0.258 0.8c0.099 0.306 0.339 0.546 0.645 0.645l0.8 0.258-0.176 0.822c-0.068 0.314 0.020 0.642 0.236 0.881l0.564 0.623-0.564 0.623c-0.216 0.239-0.304 0.566-0.236 0.881l0.176 0.822-0.8 0.258c-0.306 0.099-0.546 0.338-0.645 0.645l-0.258 0.8-0.821-0.177c-0.315-0.070-0.644 0.020-0.881 0.236l-0.623 0.564-0.624-0.564c-0.186-0.168-0.425-0.258-0.671-0.258-0.070 0-0.141 0.007-0.21 0.022l-0.821 0.177-0.258-0.8c-0.099-0.306-0.339-0.546-0.645-0.645l-0.8-0.258 0.176-0.822c0.068-0.314-0.020-0.642-0.236-0.881l-0.564-0.623 0.564-0.623c0.216-0.239 0.304-0.566 0.236-0.881zM22.6 27.2c-0.178-0.133-0.389-0.2-0.6-0.2s-0.422 0.067-0.6 0.2l-2.4 1.8v-5.821c0.070 0 0.139 0.010 0.21-0.005l1.205-0.259 0.914 0.827c0.19 0.172 0.431 0.258 0.671 0.258s0.48-0.086 0.671-0.258l0.914-0.827 1.205 0.259c0.071 0.015 0.14 0.006 0.21 0.006v5.821l-2.4-1.8zM30 20h-1.821c0-0.070 0.010-0.139-0.005-0.21l-0.258-1.205 0.826-0.914c0.344-0.381 0.344-0.961 0-1.342l-0.826-0.914 0.258-1.205c0.108-0.502-0.182-1.004-0.671-1.162l-1.173-0.378-0.378-1.174c-0.157-0.488-0.66-0.778-1.162-0.67l-1.205 0.259-0.914-0.827c-0.381-0.345-0.961-0.345-1.342 0l-0.914 0.827-1.205-0.259c-0.5-0.106-1.004 0.182-1.162 0.67l-0.378 1.174-1.173 0.378c-0.489 0.157-0.779 0.66-0.671 1.162l0.258 1.205-0.826 0.914c-0.344 0.381-0.344 0.961 0 1.342l0.826 0.914-0.258 1.205c-0.015 0.071-0.005 0.14-0.005 0.21h-13.821v-18h28v18z"></path>
</svg>
