<?xml version="1.0" encoding="utf-8"?>
<!-- Generated by IcoMoon.io -->
<!DOCTYPE svg PUBLIC "-//W3C//DTD SVG 1.1//EN" "http://www.w3.org/Graphics/SVG/1.1/DTD/svg11.dtd">
<svg version="1.1" xmlns="http://www.w3.org/2000/svg" xmlns:xlink="http://www.w3.org/1999/xlink" width="32" height="32" viewBox="0 0 32 32">
<path d="M28.718 23.025c0 1.749-1.244 3.657-2.777 3.657s-2.777-1.905-2.777-3.657 1.244-2.677 2.777-2.677 2.777 0.928 2.777 2.677zM3.285 23.025c0 1.749 1.244 3.657 2.777 3.657s2.777-1.905 2.777-3.657-1.244-2.677-2.777-2.677-2.777 0.928-2.777 2.677zM13.225 23.025c0 1.749 1.243 3.657 2.776 3.657s2.777-1.905 2.777-3.657-1.244-2.677-2.777-2.677c-1.534 0-2.776 0.928-2.776 2.677zM30.198 27.874c-0.231-0.231-0.543-0.36-0.867-0.36h-6.785c-0.673 0-1.221 0.545-1.221 1.221l-0.002 3.265h9.187l0.039-3.254c0.005-0.326-0.123-0.639-0.352-0.872zM9.455 27.514h-6.784c-0.674 0-1.221 0.545-1.221 1.221v3.265h9.186l0.039-3.254c0.003-0.323-0.124-0.638-0.354-0.87-0.228-0.233-0.539-0.362-0.866-0.362zM19.394 27.514h-6.783c-0.674 0-1.221 0.545-1.221 1.221l-0.002 3.265h9.185l0.039-3.254c0.004-0.323-0.124-0.638-0.353-0.87s-0.54-0.362-0.866-0.362zM29.508 3.11v12.244c0 1.717-1.391 3.108-3.108 3.108h-14.23v-8.383l1.795 2.435c0.293 0.399 0.846 0.51 1.271 0.255l2.143-1.286c0.458-0.276 0.606-0.867 0.331-1.324-0.275-0.458-0.867-0.606-1.323-0.33l-1.391 0.835-1.73-2.348c-0.181-0.245-0.47-0.393-0.776-0.393h-2.079l-0.363 0.484 0.667 3.779-0.904 0.851-0.904-0.851 0.667-3.779-0.363-0.484h-2.079c-0.532 0-0.964 0.432-0.964 0.963v6.268c0 0.532 0.432 0.962 0.964 0.962 0.114 0 0.221-0.022 0.321-0.057v2.401h-1.849c-1.717 0-3.108-1.391-3.108-3.108v-12.245c0-1.717 1.391-3.108 3.108-3.108h20.796c1.718 0.001 3.108 1.392 3.108 3.11zM12.005 4.38c0-1.382-0.983-2.115-2.195-2.115s-2.193 0.733-2.193 2.115 0.982 2.89 2.193 2.89c1.212 0 2.195-1.508 2.195-2.89z"></path>
</svg>
