<?xml version="1.0" encoding="utf-8"?>
<!-- Generated by IcoMoon.io -->
<!DOCTYPE svg PUBLIC "-//W3C//DTD SVG 1.1//EN" "http://www.w3.org/Graphics/SVG/1.1/DTD/svg11.dtd">
<svg version="1.1" xmlns="http://www.w3.org/2000/svg" xmlns:xlink="http://www.w3.org/1999/xlink" width="37" height="32" viewBox="0 0 37 32">
<path d="M36.528 32.004h-36.196c-0.119 0-0.227-0.060-0.287-0.16s-0.060-0.227 0-0.328l18.096-31.348c0.060-0.101 0.168-0.16 0.287-0.16s0.227 0.060 0.287 0.16l5.854 10.136c0.089 0.157 0.037 0.358-0.119 0.451s-0.358 0.037-0.451-0.119l-5.567-9.652-17.53 30.36h35.063l-8.825-15.652c-0.089-0.157-0.037-0.358 0.127-0.451 0.157-0.089 0.358-0.037 0.451 0.127l9.1 16.143c0.060 0.101 0.052 0.227 0 0.328-0.067 0.104-0.175 0.164-0.291 0.164v0z"></path>
<path d="M34.966 6.417l-2.419-2.419c-0.481-0.481-1.26-0.481-1.737 0l-13.17 13.173c-0.216 0.212-0.384 0.466-0.492 0.753l-1.688 4.405c0 0 0 0 0 0.007-0.127 0.343-0.041 0.708 0.209 0.965 0.175 0.175 0.406 0.268 0.648 0.268 0.108 0 0.216-0.019 0.317-0.060 0 0 0 0 0.007 0l4.405-1.688c0.287-0.108 0.54-0.276 0.756-0.492l13.166-13.173c0.473-0.481 0.473-1.26-0.004-1.74v0 0zM17.675 18.182l3.108 3.108-2.105 0.812-1.807-1.807 0.805-2.113zM16.43 22.956c-0.127 0.048-0.253 0.019-0.347-0.078s-0.119-0.22-0.078-0.347l0.63-1.647 1.438 1.438-1.643 0.634zM34.553 7.74l-13.173 13.17c-0.022 0.022-0.052 0.048-0.078 0.071l-3.32-3.324c0.022-0.022 0.048-0.052 0.071-0.078l13.166-13.166c0.253-0.253 0.66-0.253 0.909 0l2.419 2.419c0.257 0.253 0.257 0.66 0.007 0.909v0 0z"></path>
</svg>
