<svg xmlns="http://www.w3.org/2000/svg" width="32" height="32" viewBox="0 0 32 32"><path fill="#9e9e9e" d="M23.667 11.636c0-4.227-3.439-7.667-7.667-7.667s-7.667 3.439-7.667 7.667c0 2.933 1.177 4.492 2.215 5.869.877 1.162 1.634 2.166 1.634 3.93v3.222a3.363 3.363 0 0 0 3.357 3.375h.922a3.369 3.369 0 0 0 3.363-3.375l-.007-3.222c0-1.764.757-2.767 1.634-3.93 1.038-1.376 2.215-2.936 2.215-5.869zm-7.206 14.833h-.922a1.817 1.817 0 0 1-1.718-1.235h4.357a1.816 1.816 0 0 1-1.718 1.235zm1.813-2.797h-4.547v-.747h4.547v.747zm-.019-2.31h-4.51c-.02-2.243-1.001-3.542-1.949-4.799-.977-1.295-1.9-2.518-1.9-4.928 0-3.366 2.738-6.104 6.104-6.104s6.104 2.738 6.104 6.104c0 2.409-.923 3.633-1.9 4.928-.948 1.257-1.929 2.556-1.949 4.799z"/><path fill="#9e9e9e" d="M14.879 17.742a.782.782 0 0 0 .467-1.001l-1.699-4.664.576-.902 1.245 1.153c.3.277.762.277 1.062 0l1.245-1.153.576.902-1.699 4.664a.78.78 0 1 0 1.468.534l1.831-5.027a.782.782 0 0 0-.076-.688l-1.288-2.015a.78.78 0 0 0-1.189-.152l-1.4 1.297-1.4-1.297a.784.784 0 0 0-1.189.152l-1.287 2.015a.782.782 0 0 0-.076.688l1.831 5.027a.782.782 0 0 0 1.001.467z"/></svg>