<svg xmlns="http://www.w3.org/2000/svg" width="32" height="32" viewBox="0 0 32 32"><path fill="#9e9e9e" d="M27.401 12.757L16.36 7.026a.782.782 0 0 0-.72 0L4.599 12.757a.78.78 0 0 0-.421.693v2.992a.781.781 0 0 0 1.562 0v-1.706l1.675.869v6.221c0 .163.051.322.146.454.081.114 2.063 2.782 8.439 2.782s8.358-2.668 8.439-2.782a.78.78 0 0 0 .146-.454v-6.221l2.816-1.462a.78.78 0 0 0 0-1.386zm-4.379 8.768C22.503 22.024 20.58 23.5 16 23.5s-6.503-1.476-7.022-1.975v-5.109l6.662 3.458a.775.775 0 0 0 .72 0l6.662-3.458v5.108zM16 18.301L6.655 13.45 16 8.599l9.345 4.851L16 18.301z"/><path fill="#9e9e9e" d="M4.959 17.912a.781.781 0 0 0-.781.781v.945a.781.781 0 0 0 1.562 0v-.945a.781.781 0 0 0-.781-.781z"/></svg>