<svg xmlns="http://www.w3.org/2000/svg" width="32" height="32" viewBox="0 0 32 32"><path fill="#9e9e9e" d="M23.234 5.312H8.766A3.91 3.91 0 0 0 4.86 9.218v8.924a3.91 3.91 0 0 0 3.906 3.906h9.215l4.411 4.411a.782.782 0 0 0 1.334-.552v-3.89a3.912 3.912 0 0 0 3.414-3.875V9.218a3.91 3.91 0 0 0-3.906-3.906zm2.344 12.83a2.347 2.347 0 0 1-2.344 2.344h-.289a.781.781 0 0 0-.781.781v2.754l-3.306-3.306a.778.778 0 0 0-.552-.229H8.767a2.347 2.347 0 0 1-2.344-2.344V9.218a2.347 2.347 0 0 1 2.344-2.344h14.468a2.347 2.347 0 0 1 2.344 2.344v8.924z"/><path fill="#9e9e9e" d="M21.75 10.844h-11.5a.781.781 0 0 0 0 1.562h11.5a.781.781 0 0 0 0-1.562zM21.75 15.219h-11.5a.781.781 0 0 0 0 1.562h11.5a.781.781 0 0 0 0-1.562z"/></svg>