<svg xmlns="http://www.w3.org/2000/svg" width="21" height="32" viewBox="0 0 21 32"><path fill="#9e9e9e" d="M19.543 20.229H1.029c-.457 0-.914.457-.914.914s.457.914.914.914h18.514c.457 0 .914-.457.914-.914s-.343-.914-.914-.914zM2.171 17.829c-.457 0-.914.457-.914.914s.457.914.914.914H18.4c.457 0 .914-.457.914-.914s-.457-.914-.914-.914h-.229V9.486h.229c.229 0 .457-.229.457-.457s-.229-.457-.457-.457H2.171c-.229 0-.457.229-.457.457s.229.457.457.457H2.4v8.343h-.229zm14.172-8.343v8.343H13.6V9.486h2.743zm-4.686 0v8.343H8.914V9.486h2.743zm-7.428 0h2.743v8.343H4.229V9.486zM1.029 7.657h18.514c.457 0 .914-.457.914-.914s-.229-.8-.571-.914l-9.257-4.114a.978.978 0 0 0-.8 0L.572 5.944c-.343.229-.571.571-.457 1.029s.457.686.914.686z"/></svg>