<svg xmlns="http://www.w3.org/2000/svg" width="32" height="32" viewBox="0 0 32 32"><path fill="#9e9e9e" d="M24.466 28.902H7.185a3.216 3.216 0 0 1-3.213-3.213v-1.064a6.469 6.469 0 0 1 6.154-6.466l.389-.019.237.31c1.303 1.709 3.15 2.69 5.066 2.69s3.763-.981 5.068-2.69l.235-.309.388.018a6.462 6.462 0 0 1 6.167 6.466v1.064a3.214 3.214 0 0 1-3.211 3.213zM9.831 19.673a4.987 4.987 0 0 0-4.376 4.953v1.064c0 .954.777 1.731 1.731 1.731h17.28c.954 0 1.731-.777 1.731-1.731v-1.064c0-2.546-1.9-4.654-4.388-4.954-1.571 1.881-3.733 2.952-5.99 2.952s-4.419-1.07-5.988-2.951z"/><path fill="#9e9e9e" d="M15.819 20.564c-3.474 0-6.3-3.451-6.3-7.691s2.825-7.691 6.3-7.691 6.3 3.451 6.3 7.691c-.001 4.24-2.826 7.691-6.3 7.691zm0-13.901c-2.656 0-4.817 2.786-4.817 6.209s2.161 6.209 4.817 6.209 4.817-2.786 4.817-6.209c0-3.424-2.161-6.209-4.817-6.209zM31.259 21.935a.741.741 0 0 1-.741-.741v-.933a4.285 4.285 0 0 0-3.725-4.254 7.98 7.98 0 0 1-.859.874.741.741 0 1 1-.972-1.12c.328-.286.636-.615.913-.977l.236-.309.388.018a5.766 5.766 0 0 1 5.502 5.767v.933c0 .41-.332.742-.741.742zM25.2 14.657a.739.739 0 0 1-.61-1.16c.675-.983 1.047-2.246 1.047-3.555 0-2.956-1.857-5.361-4.14-5.361a.741.741 0 0 1 0-1.482c3.1 0 5.622 3.069 5.622 6.843 0 1.606-.464 3.167-1.307 4.394a.747.747 0 0 1-.613.321zM.741 21.935A.741.741 0 0 1 0 21.194v-.933a5.765 5.765 0 0 1 5.502-5.767l.388-.018.236.309c.277.362.585.692.913.977a.742.742 0 0 1-.972 1.12 8.069 8.069 0 0 1-.859-.874 4.285 4.285 0 0 0-3.725 4.254v.933a.74.74 0 0 1-.741.74zM6.801 14.657a.744.744 0 0 1-.612-.321c-.843-1.227-1.307-2.787-1.307-4.394 0-3.773 2.521-6.843 5.622-6.843a.741.741 0 0 1 0 1.482c-2.282 0-4.14 2.405-4.14 5.361 0 1.309.372 2.572 1.047 3.555a.741.741 0 0 1-.611 1.16z"/></svg>